<svg width="38" height="38" viewBox="0 0 38 38" fill="none" xmlns="http://www.w3.org/2000/svg">
<path d="M11.6163 30.4974C9.57666 30.4974 7.92641 32.1662 7.92641 34.2058C7.92641 36.2455 9.57666 37.9143 11.6163 37.9143C13.6559 37.9143 15.3247 36.2455 15.3247 34.2058C15.3247 32.1662 13.6559 30.4974 11.6163 30.4974ZM0.491028 0.830078V4.5385H4.19945L10.8746 18.6119L8.37143 23.1548C8.07475 23.6739 7.90787 24.2858 7.90787 24.9348C7.90787 26.9744 9.57666 28.6432 11.6163 28.6432H33.8668V24.9348H12.3951C12.1355 24.9348 11.9315 24.7308 11.9315 24.4712L11.9871 24.2487L13.6559 21.2264H27.4698C28.8605 21.2264 30.0842 20.4662 30.7147 19.3165L37.3527 7.28273C37.5011 7.02314 37.5752 6.70792 37.5752 6.39271C37.5752 5.37289 36.7409 4.5385 35.721 4.5385H8.29726L6.5543 0.830078H0.491028ZM30.1584 30.4974C28.1188 30.4974 26.4685 32.1662 26.4685 34.2058C26.4685 36.2455 28.1188 37.9143 30.1584 37.9143C32.198 37.9143 33.8668 36.2455 33.8668 34.2058C33.8668 32.1662 32.198 30.4974 30.1584 30.4974Z" fill="white"/>
</svg>
