<svg width="28" height="28" viewBox="0 0 28 28" fill="none" xmlns="http://www.w3.org/2000/svg">
<path d="M8.25 22C6.7375 22 5.51375 23.2375 5.51375 24.75C5.51375 26.2625 6.7375 27.5 8.25 27.5C9.7625 27.5 11 26.2625 11 24.75C11 23.2375 9.7625 22 8.25 22ZM0 0V2.75H2.75L7.7 13.1863L5.84375 16.555C5.62375 16.94 5.5 17.3937 5.5 17.875C5.5 19.3875 6.7375 20.625 8.25 20.625H24.75V17.875H8.8275C8.635 17.875 8.48375 17.7237 8.48375 17.5312L8.525 17.3663L9.7625 15.125H20.0063C21.0375 15.125 21.945 14.5613 22.4125 13.7088L27.335 4.785C27.445 4.5925 27.5 4.35875 27.5 4.125C27.5 3.36875 26.8813 2.75 26.125 2.75H5.78875L4.49625 0H0ZM22 22C20.4875 22 19.2638 23.2375 19.2638 24.75C19.2638 26.2625 20.4875 27.5 22 27.5C23.5125 27.5 24.75 26.2625 24.75 24.75C24.75 23.2375 23.5125 22 22 22Z" fill="#FF6319"/>
</svg>
