<?xml version="1.0" encoding="utf-8"?>
<!-- Generator: Adobe Illustrator 27.9.0, SVG Export Plug-In . SVG Version: 6.00 Build 0)  -->
<svg version="1.1" id="Layer_1" xmlns="http://www.w3.org/2000/svg" xmlns:xlink="http://www.w3.org/1999/xlink" x="0px" y="0px"
	 viewBox="0 0 814 558" style="enable-background:new 0 0 814 558;" xml:space="preserve">
<style type="text/css">
	.st0{fill:#FF6319;}
</style>
<path class="st0" d="M794,30.64c0,27.89,0,55.78,0,83.66c-46.19,0-92.39,0-138.57,0c0,69.71,0.26,141.51,0.26,211.23
	c-31.37,0-62.98,0-94.35,0c0-69.72-0.04-141.51-0.04-211.23c-32.24,0-64.49,0-96.73,0c-30.5,69.71-55.7,141.51-86.19,211.23
	c-19.23,0.7-37.55,0-56.03,0c-20.04-51.42-41.66-110.14-61.7-161.55c-0.87,1.75-41.61,110.14-60.79,161.55c-19.17,0-35.86,0-55.03,0
	c-37.47-97.6-76.7-198.48-114.17-296.07c29.41,0.21,55.29,0.21,83.9,0.05c18.3,40.96,38.89,85.67,57.19,126.62
	c0-1.74,36.28-86.54,53.71-126.62c27.54,0,48.31,0,75.19,0c14.24,33.45,41.34,92.99,56.73,129.24c18.3-42.7,36.6-85.41,54.91-128.11
	C539.51,30.64,666.77,30.64,794,30.64z"/>
<path class="st0" d="M23,349.27c256.2,0,512.47,0,768.67,0c0,27.02,0,54.04,0,81.05c-256.2,0-512.48,0-768.67,0
	C23,403.3,23,376.28,23,349.27z"/>
<path class="st0" d="M62.43,511.58h0.22l16.52-51.62h9.59l17.19,51.62h0.22l16.31-50.64h16.96l-28.09,75.76h-11.9l-16.53-48.57H82.7
	l-15.64,48.57h-11.9l-26.44-75.76h16.97L62.43,511.58z"/>
<path class="st0" d="M181.32,497.71v-24.38h13.49v61.9h-13.49v-27.67h-24.97v27.67h-13.49v-61.9h13.49v24.38H181.32z"/>
<path class="st0" d="M218.22,535.23h-13.5v-61.9h13.5V535.23z"/>
<path class="st0" d="M250.54,535.23h-13.49v-51.39h-13.95v-10.51h41.4v10.51h-13.96V535.23z"/>
<path class="st0" d="M282.94,535.23h-13.49v-61.9h13.49V535.23z"/>
<path class="st0" d="M292.77,471.68h9.73l36.44,43.27h0.19v-41.62h13.49v63.14h-9.73l-36.44-43.27h-0.18v42.04h-13.5V471.68z"/>
<path class="st0" d="M423.59,502.31v1.56c0,17.49-10.01,33.01-31.49,33.01c-20.2,0-32.96-15.28-32.96-32.35
	c0-17.65,13.13-32.85,33.79-32.85c11.75,0,22.03,5.34,27.36,14.78l-11.94,5.75c-2.76-5.58-8.63-9.85-15.79-9.85
	c-13.04,0-19.46,11.91-19.46,22.17c0,10.26,6.52,21.67,19.55,21.67c8.45,0,15.51-6.57,15.79-14.04h-14.69v-9.85H423.59z"/>
<path class="st0" d="M456.95,497.99v11.33h-26.88v-11.33H456.95z"/>
<path class="st0" d="M494.63,535.23h-16.2v-61.68h-16.75v-12.61h49.69v12.61h-16.74V535.23z"/>
<path class="st0" d="M515.96,473.33h13.49v34.65c0,7.63,0.74,18.39,12.21,18.39c11.48,0,12.21-10.76,12.21-18.39v-34.65h13.49v37.03
	c0,15.1-7.16,26.52-25.7,26.52c-18.55,0-25.7-11.42-25.7-26.52V473.33z"/>
<path class="st0" d="M623.74,535.23H607.4l-16.8-24.96h-0.18v24.96h-13.5v-61.9h18.27c13.68,0,23.14,5.42,23.14,18.64
	c0,7.88-4.87,15.76-14.14,17.16L623.74,535.23z M590.41,501.82h1.75c7.44,0,12.67-1.97,12.67-9.53c0-7.64-5.41-9.11-12.58-9.11
	h-1.84V501.82z"/>
<path class="st0" d="M628.14,471.68h9.73l36.45,43.27h0.18v-41.62H688v63.14h-9.74l-36.44-43.27h-0.18v42.04h-13.5V471.68z"/>
<path class="st0" d="M711.32,483.84v13.62h21.48v10.51h-21.48v16.74h22.31v10.51h-35.81v-61.9h35.81v10.51H711.32z"/>
<path class="st0" d="M789.44,535.23H773.1l-16.79-24.96h-0.18v24.96h-13.5v-61.9h18.27c13.68,0,23.14,5.42,23.14,18.64
	c0,7.88-4.87,15.76-14.14,17.16L789.44,535.23z M756.12,501.82h1.74c7.43,0,12.67-1.97,12.67-9.53c0-7.64-5.42-9.11-12.57-9.11
	h-1.84V501.82z"/>
</svg>
