<svg width="954" height="304" viewBox="0 0 954 304" fill="none" xmlns="http://www.w3.org/2000/svg">
<path d="M92.1036 2.80036L103.235 2.80036L103.235 57.4669L92.1036 57.4669L92.1036 2.80036ZM-5.98163e-07 54.7016L103.235 54.7016L103.235 68.386L0 68.386L-5.98163e-07 54.7016ZM44.3856 10.0325L55.5174 10.0325L55.5174 57.4669L44.3856 57.4669L44.3856 10.0325ZM-2.83585e-06 3.5094L11.2027 3.5094L11.2027 57.4669L-4.7729e-07 57.4669L-2.83585e-06 3.5094Z" fill="#FF6319"/>
<path d="M44.3856 119.139L55.5174 119.139L55.5174 175.011L44.3856 175.011L44.3856 119.139ZM-5.98162e-07 172.884L103.235 172.884L103.235 186.568L0 186.568L-5.98162e-07 172.884ZM-3.4681e-06 107.227L103.235 107.227L103.235 120.84L-2.87304e-06 120.84L-3.4681e-06 107.227Z" fill="#FF6319"/>
<path d="M-2.03623e-06 249.587L103.235 249.587L103.235 263.058L-1.44737e-06 263.058L-2.03623e-06 249.587ZM-3.4867e-06 216.404L11.2027 216.404L11.2027 296.17L0 296.17L-3.4867e-06 216.404Z" fill="#FF6319"/>
<path d="M843.882 172.295L766.689 172.295L766.278 124.95H828.856C840.109 124.95 849.097 123.715 855.822 121.245C862.546 118.637 867.418 114.863 870.437 109.923C873.593 104.983 875.171 98.8073 875.171 91.3967C875.171 82.8883 873.593 76.0267 870.437 70.8119C867.281 65.597 862.272 61.8232 855.41 59.4902C848.686 57.02 839.971 55.7849 829.267 55.7849H793.861V299.715H721.608V0L829.267 0C847.794 0 864.33 1.7154 878.877 5.14621C893.423 8.43979 905.774 13.5174 915.929 20.379C926.222 27.2406 934.044 35.8863 939.396 46.3159C944.748 56.6083 947.424 68.7534 947.424 82.7511C947.424 94.9648 944.817 106.424 939.602 117.128C934.387 127.832 925.673 136.546 913.459 143.271C901.383 149.858 884.846 153.288 863.85 153.563L843.882 172.295ZM841.001 299.715H749.192L773.894 244.136L841.001 244.136C850.881 244.136 858.772 242.627 864.673 239.608C870.711 236.451 875.034 232.334 877.642 227.257C880.386 222.042 881.759 216.278 881.759 209.965C881.759 202.28 880.455 195.625 877.847 189.998C875.377 184.372 871.398 180.049 865.908 177.03C860.419 173.873 853.077 172.295 843.882 172.295L783.157 172.295L783.569 124.95L856.233 124.95L873.113 143.888C893.149 143.065 908.999 145.878 920.664 152.328C932.466 158.778 940.906 167.286 945.983 177.853C951.061 188.42 953.6 199.467 953.6 210.995C953.6 230.619 949.346 247.018 940.837 260.192C932.466 273.367 919.909 283.248 903.167 289.835C886.425 296.422 865.702 299.715 841.001 299.715Z" fill="#FF6319"/>
<path d="M603.864 0L676.116 0V195.762C676.116 219.091 671.245 238.853 661.501 255.046C651.758 271.102 638.103 283.248 620.537 291.481C602.972 299.715 582.318 303.832 558.577 303.832C535.11 303.832 514.457 299.715 496.616 291.481C478.913 283.248 465.053 271.102 455.035 255.046C445.154 238.853 440.214 219.091 440.214 195.762L440.214 0L512.673 0V195.762C512.673 208.113 514.457 218.199 518.025 226.022C521.593 233.707 526.807 239.333 533.669 242.901C540.531 246.469 548.833 248.253 558.577 248.253C568.458 248.253 576.76 246.469 583.484 242.901C590.209 239.333 595.286 233.707 598.717 226.022C602.148 218.199 603.864 208.113 603.864 195.762V0Z" fill="#FF6319"/>
<path d="M346.758 118.98V174.56L192.99 174.56V118.98L346.758 118.98ZM217.074 0L217.074 299.715H144.821L144.821 0L217.074 0ZM395.339 0L395.339 299.715H323.292L323.292 0L395.339 0Z" fill="#FF6319"/>
</svg>
